<svg width="20" height="21" viewBox="0 0 20 21" fill="none" xmlns="http://www.w3.org/2000/svg">
<path d="M16.2172 5.4875C14.5977 4.67813 12.4477 4.25 10 4.25C7.55234 4.25 5.40234 4.67813 3.78281 5.4875C2.16328 6.29688 1.25 7.43594 1.25 8.625V12.375C1.25 13.5641 2.17344 14.707 3.78281 15.5125C5.39219 16.318 7.55234 16.75 10 16.75C12.4477 16.75 14.5977 16.3219 16.2172 15.5125C17.8367 14.7031 18.75 13.5641 18.75 12.375V8.625C18.75 7.43594 17.8266 6.29297 16.2172 5.4875ZM9.375 12.9875V15.4875C7.89062 15.4391 6.64062 15.2203 5.625 14.9023V12.457C6.84932 12.7832 8.10826 12.9618 9.375 12.9891V12.9875ZM10.625 12.9875C11.8917 12.9603 13.1507 12.7817 14.375 12.4555V14.9016C13.3594 15.2195 12.1094 15.4383 10.625 15.4867V12.9875ZM2.5 12.375V10.932C2.89332 11.2585 3.32393 11.5373 3.78281 11.7625C3.97266 11.857 4.17344 11.9461 4.375 12.0305V14.4062C3.13828 13.7937 2.5 13.0227 2.5 12.375ZM15.625 14.4062V12.0305C15.8289 11.9461 16.0273 11.857 16.2172 11.7625C16.6761 11.5373 17.1067 11.2585 17.5 10.932V12.375C17.5 13.0227 16.8617 13.7937 15.625 14.4062Z" fill="#5F57FF"/>
</svg>
