<svg width="20" height="21" viewBox="0 0 20 21" fill="none" xmlns="http://www.w3.org/2000/svg">
<path d="M10 7.24707C9.38193 7.24707 8.77775 7.43035 8.26384 7.77373C7.74994 8.11711 7.3494 8.60517 7.11288 9.17618C6.87635 9.7472 6.81447 10.3755 6.93505 10.9817C7.05562 11.5879 7.35325 12.1447 7.79029 12.5818C8.22733 13.0188 8.78415 13.3164 9.39034 13.437C9.99653 13.5576 10.6249 13.4957 11.1959 13.2592C11.7669 13.0227 12.255 12.6221 12.5983 12.1082C12.9417 11.5943 13.125 10.9901 13.125 10.3721C13.125 9.54327 12.7958 8.74841 12.2097 8.16236C11.6237 7.57631 10.8288 7.24707 10 7.24707ZM10 12.2471C9.62916 12.2471 9.26665 12.1371 8.95831 11.9311C8.64996 11.725 8.40964 11.4322 8.26773 11.0896C8.12581 10.747 8.08868 10.37 8.16103 10.0063C8.23337 9.64256 8.41195 9.30847 8.67417 9.04624C8.9364 8.78402 9.27049 8.60545 9.63421 8.5331C9.99792 8.46075 10.3749 8.49788 10.7175 8.6398C11.0601 8.78171 11.353 9.02203 11.559 9.33038C11.765 9.63872 11.875 10.0012 11.875 10.3721C11.875 10.8694 11.6775 11.3463 11.3258 11.6979C10.9742 12.0495 10.4973 12.2471 10 12.2471ZM18.75 4.74707H1.25C1.08424 4.74707 0.925268 4.81292 0.808058 4.93013C0.690848 5.04734 0.625 5.20631 0.625 5.37207V15.3721C0.625 15.5378 0.690848 15.6968 0.808058 15.814C0.925268 15.9312 1.08424 15.9971 1.25 15.9971H18.75C18.9158 15.9971 19.0747 15.9312 19.1919 15.814C19.3092 15.6968 19.375 15.5378 19.375 15.3721V5.37207C19.375 5.20631 19.3092 5.04734 19.1919 4.93013C19.0747 4.81292 18.9158 4.74707 18.75 4.74707ZM15.1289 14.7471H4.87109C4.66125 14.0374 4.27719 13.3915 3.75389 12.8682C3.23059 12.3449 2.58468 11.9608 1.875 11.751V8.99316C2.58468 8.78332 3.23059 8.39926 3.75389 7.87596C4.27719 7.35266 4.66125 6.70676 4.87109 5.99707H15.1289C15.3387 6.70676 15.7228 7.35266 16.2461 7.87596C16.7694 8.39926 17.4153 8.78332 18.125 8.99316V11.751C17.4153 11.9608 16.7694 12.3449 16.2461 12.8682C15.7228 13.3915 15.3387 14.0374 15.1289 14.7471ZM18.125 7.6666C17.3753 7.34425 16.7778 6.74673 16.4555 5.99707H18.125V7.6666ZM3.54453 5.99707C3.22218 6.74673 2.62466 7.34425 1.875 7.6666V5.99707H3.54453ZM1.875 13.0775C2.62466 13.3999 3.22218 13.9974 3.54453 14.7471H1.875V13.0775ZM16.4555 14.7471C16.7778 13.9974 17.3753 13.3999 18.125 13.0775V14.7471H16.4555Z" fill="#666D80"/>
</svg>
