<svg width="20" height="21" viewBox="0 0 20 21" fill="none" xmlns="http://www.w3.org/2000/svg">
<path d="M17.0961 8.47924L10.8461 2.58236C10.843 2.5797 10.8402 2.57683 10.8375 2.57377C10.6074 2.3645 10.3075 2.24854 9.99648 2.24854C9.68545 2.24854 9.38558 2.3645 9.15547 2.57377L9.14688 2.58236L2.90391 8.47924C2.77656 8.59634 2.67491 8.7386 2.60538 8.89701C2.53586 9.05543 2.49997 9.22655 2.5 9.39955V16.6222C2.5 16.9537 2.6317 17.2717 2.86612 17.5061C3.10054 17.7405 3.41848 17.8722 3.75 17.8722H16.25C16.5815 17.8722 16.8995 17.7405 17.1339 17.5061C17.3683 17.2717 17.5 16.9537 17.5 16.6222V9.39955C17.5 9.22655 17.4641 9.05543 17.3946 8.89701C17.3251 8.7386 17.2234 8.59634 17.0961 8.47924ZM16.25 16.6222H3.75V9.39955L3.75859 9.39174L10 3.49721L16.2422 9.39018L16.2508 9.39799L16.25 16.6222Z" fill="#666D80"/>
</svg>
