<svg width="21" height="20" viewBox="0 0 21 20" fill="none" xmlns="http://www.w3.org/2000/svg">
<path d="M20.3492 8.96797L16.7914 4.82266C16.6741 4.68249 16.5274 4.56976 16.3618 4.49241C16.1962 4.41507 16.0156 4.37499 15.8328 4.375H3C2.66848 4.375 2.35054 4.5067 2.11612 4.74112C1.8817 4.97554 1.75 5.29348 1.75 5.625V14.375C1.75 14.7065 1.8817 15.0245 2.11612 15.2589C2.35054 15.4933 2.66848 15.625 3 15.625H4.32812C4.46581 16.1628 4.77856 16.6394 5.21707 16.9798C5.65557 17.3202 6.19489 17.5049 6.75 17.5049C7.30511 17.5049 7.84443 17.3202 8.28293 16.9798C8.72144 16.6394 9.03419 16.1628 9.17188 15.625H13.0781C13.2158 16.1628 13.5286 16.6394 13.9671 16.9798C14.4056 17.3202 14.9449 17.5049 15.5 17.5049C16.0551 17.5049 16.5944 17.3202 17.0329 16.9798C17.4714 16.6394 17.7842 16.1628 17.9219 15.625H19.25C19.5815 15.625 19.8995 15.4933 20.1339 15.2589C20.3683 15.0245 20.5 14.7065 20.5 14.375V9.375C20.5 9.22567 20.4465 9.08128 20.3492 8.96797ZM18.5148 8.75H14.25V5.625H15.8328L18.5148 8.75ZM8.625 8.75V5.625H13V8.75H8.625ZM7.375 5.625V8.75H3V5.625H7.375ZM6.75 16.25C6.50277 16.25 6.2611 16.1767 6.05554 16.0393C5.84998 15.902 5.68976 15.7068 5.59515 15.4784C5.50054 15.2499 5.47579 14.9986 5.52402 14.7561C5.57225 14.5137 5.6913 14.2909 5.86612 14.1161C6.04093 13.9413 6.26366 13.8222 6.50614 13.774C6.74861 13.7258 6.99995 13.7505 7.22835 13.8451C7.45676 13.9398 7.65199 14.1 7.78934 14.3055C7.92669 14.5111 8 14.7528 8 15C8 15.3315 7.8683 15.6495 7.63388 15.8839C7.39946 16.1183 7.08152 16.25 6.75 16.25ZM15.5 16.25C15.2528 16.25 15.0111 16.1767 14.8055 16.0393C14.6 15.902 14.4398 15.7068 14.3451 15.4784C14.2505 15.2499 14.2258 14.9986 14.274 14.7561C14.3222 14.5137 14.4413 14.2909 14.6161 14.1161C14.7909 13.9413 15.0137 13.8222 15.2561 13.774C15.4986 13.7258 15.7499 13.7505 15.9784 13.8451C16.2068 13.9398 16.402 14.1 16.5393 14.3055C16.6767 14.5111 16.75 14.7528 16.75 15C16.75 15.3315 16.6183 15.6495 16.3839 15.8839C16.1495 16.1183 15.8315 16.25 15.5 16.25ZM17.9219 14.375C17.7842 13.8372 17.4714 13.3606 17.0329 13.0202C16.5944 12.6798 16.0551 12.4951 15.5 12.4951C14.9449 12.4951 14.4056 12.6798 13.9671 13.0202C13.5286 13.3606 13.2158 13.8372 13.0781 14.375H9.17188C9.03419 13.8372 8.72144 13.3606 8.28293 13.0202C7.84443 12.6798 7.30511 12.4951 6.75 12.4951C6.19489 12.4951 5.65557 12.6798 5.21707 13.0202C4.77856 13.3606 4.46581 13.8372 4.32812 14.375H3V10H19.25V14.375H17.9219Z" fill="#666D80"/>
</svg>
