<svg width="20" height="21" viewBox="0 0 20 21" fill="none" xmlns="http://www.w3.org/2000/svg">
<path d="M19.375 4.74707C19.375 4.91283 19.3092 5.0718 19.1919 5.18901C19.0747 5.30622 18.9158 5.37207 18.75 5.37207H15V8.49707C15 8.66283 14.9342 8.8218 14.8169 8.93901C14.6997 9.05622 14.5408 9.12207 14.375 9.12207H10.625V12.2471C10.625 12.4128 10.5592 12.5718 10.4419 12.689C10.3247 12.8062 10.1658 12.8721 10 12.8721H6.25V15.9971C6.25 16.1628 6.18415 16.3218 6.06694 16.439C5.94973 16.5562 5.79076 16.6221 5.625 16.6221H1.25C1.08424 16.6221 0.925268 16.5562 0.808058 16.439C0.690848 16.3218 0.625 16.1628 0.625 15.9971C0.625 15.8313 0.690848 15.6723 0.808058 15.5551C0.925268 15.4379 1.08424 15.3721 1.25 15.3721H5V12.2471C5 12.0813 5.06585 11.9223 5.18306 11.8051C5.30027 11.6879 5.45924 11.6221 5.625 11.6221H9.375V8.49707C9.375 8.33131 9.44085 8.17234 9.55806 8.05513C9.67527 7.93792 9.83424 7.87207 10 7.87207H13.75V4.74707C13.75 4.58131 13.8158 4.42234 13.9331 4.30513C14.0503 4.18792 14.2092 4.12207 14.375 4.12207H18.75C18.9158 4.12207 19.0747 4.18792 19.1919 4.30513C19.3092 4.42234 19.375 4.58131 19.375 4.74707Z" fill="#36394A"/>
</svg>
