<svg width="20" height="21" viewBox="0 0 20 21" fill="none" xmlns="http://www.w3.org/2000/svg">
<path d="M5.625 8.49707C5.625 8.33131 5.69085 8.17234 5.80806 8.05513C5.92527 7.93792 6.08424 7.87207 6.25 7.87207H13.75C13.9158 7.87207 14.0747 7.93792 14.1919 8.05513C14.3092 8.17234 14.375 8.33131 14.375 8.49707C14.375 8.66283 14.3092 8.8218 14.1919 8.93901C14.0747 9.05622 13.9158 9.12207 13.75 9.12207H6.25C6.08424 9.12207 5.92527 9.05622 5.80806 8.93901C5.69085 8.8218 5.625 8.66283 5.625 8.49707ZM6.25 11.6221H13.75C13.9158 11.6221 14.0747 11.5562 14.1919 11.439C14.3092 11.3218 14.375 11.1628 14.375 10.9971C14.375 10.8313 14.3092 10.6723 14.1919 10.5551C14.0747 10.4379 13.9158 10.3721 13.75 10.3721H6.25C6.08424 10.3721 5.92527 10.4379 5.80806 10.5551C5.69085 10.6723 5.625 10.8313 5.625 10.9971C5.625 11.1628 5.69085 11.3218 5.80806 11.439C5.92527 11.5562 6.08424 11.6221 6.25 11.6221ZM18.125 4.74707V16.6221C18.1249 16.7286 18.0977 16.8333 18.0457 16.9264C17.9938 17.0194 17.919 17.0976 17.8284 17.1535C17.7377 17.2095 17.6343 17.2414 17.5279 17.2461C17.4214 17.2509 17.3156 17.2283 17.2203 17.1807L15 16.0705L12.7797 17.1807C12.6929 17.2241 12.5971 17.2467 12.5 17.2467C12.4029 17.2467 12.3071 17.2241 12.2203 17.1807L10 16.0705L7.77969 17.1807C7.69286 17.2241 7.5971 17.2467 7.5 17.2467C7.4029 17.2467 7.30714 17.2241 7.22031 17.1807L5 16.0705L2.77969 17.1807C2.68442 17.2283 2.57856 17.2509 2.47214 17.2461C2.36572 17.2414 2.26228 17.2095 2.17165 17.1535C2.08101 17.0976 2.00618 17.0194 1.95426 16.9264C1.90234 16.8333 1.87506 16.7286 1.875 16.6221V4.74707C1.875 4.41555 2.0067 4.09761 2.24112 3.86319C2.47554 3.62877 2.79348 3.49707 3.125 3.49707H16.875C17.2065 3.49707 17.5245 3.62877 17.7589 3.86319C17.9933 4.09761 18.125 4.41555 18.125 4.74707ZM16.875 4.74707H3.125V15.6111L4.72031 14.8127C4.80714 14.7692 4.9029 14.7466 5 14.7466C5.0971 14.7466 5.19286 14.7692 5.27969 14.8127L7.5 15.9236L9.72031 14.8127C9.80714 14.7692 9.9029 14.7466 10 14.7466C10.0971 14.7466 10.1929 14.7692 10.2797 14.8127L12.5 15.9236L14.7203 14.8127C14.8071 14.7692 14.9029 14.7466 15 14.7466C15.0971 14.7466 15.1929 14.7692 15.2797 14.8127L16.875 15.6111V4.74707Z" fill="#666D80"/>
</svg>
