<svg width="20" height="21" viewBox="0 0 20 21" fill="none" xmlns="http://www.w3.org/2000/svg">
<path d="M17.475 5.53999L10.6 1.77827C10.4163 1.67678 10.2099 1.62354 10 1.62354C9.79013 1.62354 9.58369 1.67678 9.4 1.77827L2.525 5.54155C2.32866 5.64898 2.16477 5.80715 2.05043 5.99954C1.93609 6.19194 1.87551 6.4115 1.875 6.6353V14.1072C1.87551 14.331 1.93609 14.5505 2.05043 14.7429C2.16477 14.9353 2.32866 15.0935 2.525 15.2009L9.4 18.9642C9.58369 19.0657 9.79013 19.1189 10 19.1189C10.2099 19.1189 10.4163 19.0657 10.6 18.9642L17.475 15.2009C17.6713 15.0935 17.8352 14.9353 17.9496 14.7429C18.0639 14.5505 18.1245 14.331 18.125 14.1072V6.63609C18.1249 6.41188 18.0645 6.19183 17.9502 5.99899C17.8358 5.80614 17.6717 5.64761 17.475 5.53999ZM10 2.87202L16.2766 6.30952L13.9508 7.58296L7.67344 4.14546L10 2.87202ZM10 9.74702L3.72344 6.30952L6.37187 4.85952L12.6484 8.29702L10 9.74702ZM3.125 7.40327L9.375 10.8236V17.5259L3.125 14.108V7.40327ZM16.875 14.1048L10.625 17.5259V10.8267L13.125 9.45874V12.247C13.125 12.4128 13.1908 12.5718 13.3081 12.689C13.4253 12.8062 13.5842 12.872 13.75 12.872C13.9158 12.872 14.0747 12.8062 14.1919 12.689C14.3092 12.5718 14.375 12.4128 14.375 12.247V8.77437L16.875 7.40327V14.1041V14.1048Z" fill="#666D80"/>
</svg>
