<svg width="20" height="21" viewBox="0 0 20 21" fill="none" xmlns="http://www.w3.org/2000/svg">
<path d="M16.875 10.9972H15.625V9.74725H16.875C17.0408 9.74725 17.1997 9.6814 17.3169 9.56419C17.4342 9.44698 17.5 9.28801 17.5 9.12225C17.5 8.95649 17.4342 8.79752 17.3169 8.68031C17.1997 8.5631 17.0408 8.49725 16.875 8.49725H15.625V3.966C15.625 3.80024 15.5592 3.64127 15.4419 3.52406C15.3247 3.40685 15.1658 3.341 15 3.341C14.8342 3.341 14.6753 3.40685 14.5581 3.52406C14.4408 3.64127 14.375 3.80024 14.375 3.966V8.49725H9.32969L5.49297 3.58162C5.41293 3.47893 5.30282 3.40379 5.17801 3.36671C5.0532 3.32962 4.91992 3.33244 4.79679 3.37478C4.67366 3.41711 4.56683 3.49684 4.49121 3.60284C4.41559 3.70883 4.37496 3.8358 4.375 3.966V8.49725H3.125C2.95924 8.49725 2.80027 8.5631 2.68306 8.68031C2.56585 8.79752 2.5 8.95649 2.5 9.12225C2.5 9.28801 2.56585 9.44698 2.68306 9.56419C2.80027 9.6814 2.95924 9.74725 3.125 9.74725H4.375V10.9972H3.125C2.95924 10.9972 2.80027 11.0631 2.68306 11.1803C2.56585 11.2975 2.5 11.4565 2.5 11.6222C2.5 11.788 2.56585 11.947 2.68306 12.0642C2.80027 12.1814 2.95924 12.2472 3.125 12.2472H4.375V16.7785C4.375 16.9443 4.44085 17.1032 4.55806 17.2204C4.67527 17.3377 4.83424 17.4035 5 17.4035C5.16576 17.4035 5.32473 17.3377 5.44194 17.2204C5.55915 17.1032 5.625 16.9443 5.625 16.7785V12.2472H10.6703L14.507 17.1629C14.5655 17.2378 14.6403 17.2985 14.7257 17.3402C14.8111 17.3819 14.9049 17.4035 15 17.4035C15.0692 17.4037 15.1379 17.392 15.2031 17.3691C15.3262 17.3268 15.433 17.2472 15.5086 17.1413C15.5842 17.0354 15.6249 16.9086 15.625 16.7785V12.2472H16.875C17.0408 12.2472 17.1997 12.1814 17.3169 12.0642C17.4342 11.947 17.5 11.788 17.5 11.6222C17.5 11.4565 17.4342 11.2975 17.3169 11.1803C17.1997 11.0631 17.0408 10.9972 16.875 10.9972ZM14.375 9.74725V10.9972H11.2805L10.3047 9.74725H14.375ZM5.625 5.78241L7.74375 8.49725H5.625V5.78241ZM5.625 10.9972V9.74725H8.71953L9.69531 10.9972H5.625ZM14.375 14.9621L12.2563 12.2472H14.375V14.9621Z" fill="#666D80"/>
</svg>
