<svg width="20" height="21" viewBox="0 0 20 21" fill="none" xmlns="http://www.w3.org/2000/svg">
<path d="M8.125 3.49707H4.375C4.04348 3.49707 3.72554 3.62877 3.49112 3.86319C3.2567 4.09761 3.125 4.41555 3.125 4.74707V8.49707C3.125 8.82859 3.2567 9.14653 3.49112 9.38095C3.72554 9.61537 4.04348 9.74707 4.375 9.74707H8.125C8.45652 9.74707 8.77446 9.61537 9.00888 9.38095C9.2433 9.14653 9.375 8.82859 9.375 8.49707V4.74707C9.375 4.41555 9.2433 4.09761 9.00888 3.86319C8.77446 3.62877 8.45652 3.49707 8.125 3.49707ZM8.125 8.49707H4.375V4.74707H8.125V8.49707ZM8.125 10.9971H4.375C4.04348 10.9971 3.72554 11.1288 3.49112 11.3632C3.2567 11.5976 3.125 11.9155 3.125 12.2471V15.9971C3.125 16.3286 3.2567 16.6465 3.49112 16.881C3.72554 17.1154 4.04348 17.2471 4.375 17.2471H8.125C8.45652 17.2471 8.77446 17.1154 9.00888 16.881C9.2433 16.6465 9.375 16.3286 9.375 15.9971V12.2471C9.375 11.9155 9.2433 11.5976 9.00888 11.3632C8.77446 11.1288 8.45652 10.9971 8.125 10.9971ZM8.125 15.9971H4.375V12.2471H8.125V15.9971ZM15.625 3.49707H11.875C11.5435 3.49707 11.2255 3.62877 10.9911 3.86319C10.7567 4.09761 10.625 4.41555 10.625 4.74707V8.49707C10.625 8.82859 10.7567 9.14653 10.9911 9.38095C11.2255 9.61537 11.5435 9.74707 11.875 9.74707H15.625C15.9565 9.74707 16.2745 9.61537 16.5089 9.38095C16.7433 9.14653 16.875 8.82859 16.875 8.49707V4.74707C16.875 4.41555 16.7433 4.09761 16.5089 3.86319C16.2745 3.62877 15.9565 3.49707 15.625 3.49707ZM15.625 8.49707H11.875V4.74707H15.625V8.49707ZM10.625 14.1221V11.6221C10.625 11.4563 10.6908 11.2973 10.8081 11.1801C10.9253 11.0629 11.0842 10.9971 11.25 10.9971C11.4158 10.9971 11.5747 11.0629 11.6919 11.1801C11.8092 11.2973 11.875 11.4563 11.875 11.6221V14.1221C11.875 14.2878 11.8092 14.4468 11.6919 14.564C11.5747 14.6812 11.4158 14.7471 11.25 14.7471C11.0842 14.7471 10.9253 14.6812 10.8081 14.564C10.6908 14.4468 10.625 14.2878 10.625 14.1221ZM16.875 12.8721C16.875 13.0378 16.8092 13.1968 16.6919 13.314C16.5747 13.4312 16.4158 13.4971 16.25 13.4971H14.375V16.6221C14.375 16.7878 14.3092 16.9468 14.1919 17.064C14.0747 17.1812 13.9158 17.2471 13.75 17.2471H11.25C11.0842 17.2471 10.9253 17.1812 10.8081 17.064C10.6908 16.9468 10.625 16.7878 10.625 16.6221C10.625 16.4563 10.6908 16.2973 10.8081 16.1801C10.9253 16.0629 11.0842 15.9971 11.25 15.9971H13.125V11.6221C13.125 11.4563 13.1908 11.2973 13.3081 11.1801C13.4253 11.0629 13.5842 10.9971 13.75 10.9971C13.9158 10.9971 14.0747 11.0629 14.1919 11.1801C14.3092 11.2973 14.375 11.4563 14.375 11.6221V12.2471H16.25C16.4158 12.2471 16.5747 12.3129 16.6919 12.4301C16.8092 12.5473 16.875 12.7063 16.875 12.8721ZM16.875 15.3721V16.6221C16.875 16.7878 16.8092 16.9468 16.6919 17.064C16.5747 17.1812 16.4158 17.2471 16.25 17.2471C16.0842 17.2471 15.9253 17.1812 15.8081 17.064C15.6908 16.9468 15.625 16.7878 15.625 16.6221V15.3721C15.625 15.2063 15.6908 15.0473 15.8081 14.9301C15.9253 14.8129 16.0842 14.7471 16.25 14.7471C16.4158 14.7471 16.5747 14.8129 16.6919 14.9301C16.8092 15.0473 16.875 15.2063 16.875 15.3721Z" fill="#666D80"/>
</svg>
