<svg width="20" height="21" viewBox="0 0 20 21" fill="none" xmlns="http://www.w3.org/2000/svg">
<path d="M10 2.375C8.39303 2.375 6.82214 2.85152 5.486 3.74431C4.14985 4.6371 3.10844 5.90605 2.49348 7.3907C1.87852 8.87535 1.71762 10.509 2.03112 12.0851C2.34463 13.6612 3.11846 15.1089 4.25476 16.2452C5.39106 17.3815 6.8388 18.1554 8.4149 18.4689C9.99099 18.7824 11.6247 18.6215 13.1093 18.0065C14.594 17.3916 15.8629 16.3502 16.7557 15.014C17.6485 13.6779 18.125 12.107 18.125 10.5C18.1227 8.34581 17.266 6.28051 15.7427 4.75727C14.2195 3.23403 12.1542 2.37727 10 2.375ZM9.6875 6.125C9.87292 6.125 10.0542 6.17998 10.2084 6.283C10.3625 6.38601 10.4827 6.53243 10.5536 6.70373C10.6246 6.87504 10.6432 7.06354 10.607 7.2454C10.5708 7.42725 10.4815 7.5943 10.3504 7.72541C10.2193 7.85652 10.0523 7.94581 9.8704 7.98199C9.68854 8.01816 9.50004 7.99959 9.32874 7.92864C9.15743 7.85768 9.01101 7.73752 8.908 7.58335C8.80499 7.42918 8.75 7.24792 8.75 7.0625C8.75 6.81386 8.84878 6.5754 9.02459 6.39959C9.20041 6.22377 9.43886 6.125 9.6875 6.125ZM10.625 14.875C10.2935 14.875 9.97554 14.7433 9.74112 14.5089C9.5067 14.2745 9.375 13.9565 9.375 13.625V10.5C9.20924 10.5 9.05027 10.4342 8.93306 10.3169C8.81585 10.1997 8.75 10.0408 8.75 9.875C8.75 9.70924 8.81585 9.55027 8.93306 9.43306C9.05027 9.31585 9.20924 9.25 9.375 9.25C9.70652 9.25 10.0245 9.3817 10.2589 9.61612C10.4933 9.85054 10.625 10.1685 10.625 10.5V13.625C10.7908 13.625 10.9497 13.6908 11.0669 13.8081C11.1842 13.9253 11.25 14.0842 11.25 14.25C11.25 14.4158 11.1842 14.5747 11.0669 14.6919C10.9497 14.8092 10.7908 14.875 10.625 14.875Z" fill="#749711"/>
</svg>
