<svg width="26" height="26" viewBox="0 0 26 26" fill="none" xmlns="http://www.w3.org/2000/svg">
<path d="M22.5884 15.302V20.673C22.5884 21.1818 22.3863 21.6697 22.0265 22.0294C21.6668 22.3891 21.1789 22.5912 20.6702 22.5912H5.32446C4.81572 22.5912 4.32782 22.3891 3.96808 22.0294C3.60835 21.6697 3.40625 21.1818 3.40625 20.673V15.302C3.40625 14.9968 3.52751 14.704 3.74335 14.4882C3.95919 14.2724 4.25193 14.1511 4.55718 14.1511C4.86242 14.1511 5.15517 14.2724 5.37101 14.4882C5.58685 14.704 5.70811 14.9968 5.70811 15.302V20.2894H20.2865V15.302C20.2865 14.9968 20.4078 14.704 20.6236 14.4882C20.8395 14.2724 21.1322 14.1511 21.4375 14.1511C21.7427 14.1511 22.0354 14.2724 22.2513 14.4882C22.4671 14.704 22.5884 14.9968 22.5884 15.302ZM9.97517 9.21074L11.8464 7.34145V15.302C11.8464 15.6073 11.9676 15.9 12.1835 16.1159C12.3993 16.3317 12.6921 16.453 12.9973 16.453C13.3026 16.453 13.5953 16.3317 13.8111 16.1159C14.027 15.9 14.1482 15.6073 14.1482 15.302V7.34145L16.0195 9.21362C16.2357 9.42984 16.5289 9.55131 16.8347 9.55131C17.1405 9.55131 17.4337 9.42984 17.6499 9.21362C17.8662 8.99741 17.9876 8.70416 17.9876 8.39838C17.9876 8.09261 17.8662 7.79936 17.6499 7.58314L13.8135 3.74672C13.7066 3.63942 13.5795 3.55428 13.4396 3.49619C13.2997 3.43811 13.1498 3.4082 12.9983 3.4082C12.8468 3.4082 12.6968 3.43811 12.5569 3.49619C12.417 3.55428 12.29 3.63942 12.183 3.74672L8.34661 7.58314C8.23955 7.6902 8.15462 7.8173 8.09668 7.95718C8.03874 8.09706 8.00892 8.24698 8.00892 8.39838C8.00892 8.70416 8.13039 8.99741 8.34661 9.21362C8.56282 9.42984 8.85607 9.55131 9.16185 9.55131C9.46762 9.55131 9.76087 9.42984 9.97709 9.21362L9.97517 9.21074Z" fill="#666D80"/>
</svg>
