<svg width="20" height="21" viewBox="0 0 20 21" fill="none" xmlns="http://www.w3.org/2000/svg">
<path d="M19.1252 12.1219C19.0596 12.1711 18.9849 12.207 18.9053 12.2273C18.8258 12.2477 18.7431 12.2522 18.6618 12.2406C18.5806 12.229 18.5024 12.2015 18.4318 12.1597C18.3612 12.1179 18.2995 12.0625 18.2502 11.9969C17.8735 11.4905 17.3832 11.0797 16.8187 10.7974C16.2542 10.5152 15.6313 10.3694 15.0002 10.3719C14.8773 10.3719 14.7572 10.3356 14.6547 10.2677C14.5523 10.1997 14.4722 10.1031 14.4245 9.98985C14.392 9.91296 14.3753 9.83034 14.3753 9.74688C14.3753 9.66342 14.392 9.58081 14.4245 9.50392C14.4722 9.39068 14.5523 9.29404 14.6547 9.22609C14.7572 9.15814 14.8773 9.1219 15.0002 9.12188C15.3509 9.12185 15.6946 9.02348 15.9921 8.83793C16.2897 8.65239 16.5293 8.38711 16.6836 8.07223C16.838 7.75735 16.901 7.40549 16.8654 7.05662C16.8298 6.70775 16.6971 6.37585 16.4823 6.09862C16.2676 5.82139 15.9794 5.60995 15.6505 5.4883C15.3216 5.36666 14.9651 5.33969 14.6217 5.41047C14.2782 5.48124 13.9615 5.64691 13.7074 5.88867C13.4534 6.13043 13.2723 6.43859 13.1846 6.77813C13.1641 6.85765 13.1281 6.93234 13.0787 6.99794C13.0293 7.06355 12.9675 7.11879 12.8968 7.1605C12.8261 7.20221 12.7478 7.22959 12.6665 7.24106C12.5852 7.25253 12.5024 7.24787 12.4229 7.22735C12.3434 7.20683 12.2687 7.17085 12.2031 7.12147C12.1375 7.07209 12.0822 7.01026 12.0405 6.93953C11.9988 6.8688 11.9714 6.79054 11.96 6.70923C11.9485 6.62792 11.9532 6.54515 11.9737 6.46563C12.0954 5.99479 12.3253 5.55884 12.6451 5.19247C12.9649 4.82611 13.3658 4.53944 13.8159 4.35528C14.266 4.17112 14.7529 4.09456 15.2378 4.13167C15.7227 4.16879 16.1922 4.31856 16.609 4.56908C17.0259 4.8196 17.3785 5.16394 17.6388 5.57471C17.8991 5.98548 18.06 6.45134 18.1086 6.93523C18.1572 7.41911 18.0922 7.90766 17.9188 8.362C17.7454 8.81634 17.4683 9.22394 17.1096 9.55235C17.9595 9.92032 18.6982 10.5042 19.2526 11.2461C19.3018 11.3119 19.3376 11.3868 19.3578 11.4665C19.3781 11.5462 19.3824 11.6291 19.3706 11.7104C19.3588 11.7918 19.331 11.87 19.2889 11.9406C19.2468 12.0112 19.1912 12.0728 19.1252 12.1219ZM14.9159 16.9344C14.9611 17.0055 14.9914 17.0851 15.0051 17.1682C15.0188 17.2514 15.0155 17.3365 14.9955 17.4184C14.9754 17.5002 14.939 17.5772 14.8884 17.6447C14.8379 17.7121 14.7742 17.7686 14.7012 17.8108C14.6282 17.853 14.5475 17.88 14.4638 17.8901C14.3801 17.9003 14.2952 17.8934 14.2143 17.8699C14.1333 17.8464 14.058 17.8068 13.9927 17.7535C13.9275 17.7001 13.8737 17.6341 13.8346 17.5594C13.4409 16.8927 12.8802 16.3402 12.2078 15.9564C11.5353 15.5726 10.7745 15.3707 10.0002 15.3707C9.22599 15.3707 8.46513 15.5726 7.79272 15.9564C7.1203 16.3402 6.55958 16.8927 6.16586 17.5594C6.12679 17.6341 6.07301 17.7001 6.00777 17.7535C5.94252 17.8068 5.86715 17.8464 5.7862 17.8699C5.70524 17.8934 5.62037 17.9003 5.53669 17.8901C5.45302 17.88 5.37226 17.853 5.29928 17.8108C5.2263 17.7686 5.16261 17.7121 5.11204 17.6447C5.06147 17.5772 5.02506 17.5002 5.005 17.4184C4.98495 17.3365 4.98166 17.2514 4.99535 17.1682C5.00903 17.0851 5.03939 17.0055 5.08461 16.9344C5.69055 15.8933 6.61445 15.074 7.72055 14.5969C7.09815 14.1204 6.64073 13.4608 6.41258 12.7108C6.18443 11.9609 6.19703 11.1583 6.44861 10.4159C6.70018 9.67346 7.17808 9.02855 7.81513 8.57179C8.45219 8.11503 9.21636 7.86938 10.0002 7.86938C10.7841 7.86938 11.5483 8.11503 12.1853 8.57179C12.8224 9.02855 13.3003 9.67346 13.5519 10.4159C13.8034 11.1583 13.816 11.9609 13.5879 12.7108C13.3597 13.4608 12.9023 14.1204 12.2799 14.5969C13.386 15.074 14.3099 15.8933 14.9159 16.9344ZM10.0002 14.1219C10.4947 14.1219 10.978 13.9753 11.3892 13.7006C11.8003 13.4259 12.1207 13.0354 12.3099 12.5786C12.4992 12.1218 12.5487 11.6191 12.4522 11.1342C12.3557 10.6492 12.1176 10.2037 11.768 9.85412C11.4184 9.50449 10.9729 9.26638 10.488 9.16992C10.003 9.07346 9.50034 9.12297 9.04353 9.31219C8.58671 9.5014 8.19627 9.82184 7.92156 10.233C7.64686 10.6441 7.50024 11.1274 7.50024 11.6219C7.50024 12.2849 7.76363 12.9208 8.23247 13.3897C8.70131 13.8585 9.3372 14.1219 10.0002 14.1219ZM5.62524 9.74688C5.62524 9.58112 5.55939 9.42215 5.44218 9.30494C5.32497 9.18773 5.166 9.12188 5.00024 9.12188C4.64956 9.12185 4.30591 9.02348 4.00834 8.83793C3.71076 8.65239 3.47119 8.38711 3.31682 8.07223C3.16246 7.75735 3.09949 7.40549 3.13508 7.05662C3.17066 6.70775 3.30337 6.37585 3.51813 6.09862C3.73289 5.82139 4.02109 5.60995 4.35 5.4883C4.67891 5.36666 5.03534 5.33969 5.3788 5.41047C5.72227 5.48124 6.039 5.64691 6.29303 5.88867C6.54706 6.13043 6.72819 6.43859 6.81586 6.77813C6.8573 6.93871 6.96083 7.07626 7.10368 7.1605C7.24653 7.24475 7.417 7.26879 7.57758 7.22735C7.73816 7.18591 7.8757 7.08238 7.95995 6.93953C8.04419 6.79668 8.06824 6.62621 8.0268 6.46563C7.90511 5.99479 7.67522 5.55884 7.3554 5.19247C7.03558 4.82611 6.63468 4.53944 6.18458 4.35528C5.73447 4.17112 5.2476 4.09456 4.7627 4.13167C4.2778 4.16879 3.80826 4.31856 3.39143 4.56908C2.9746 4.8196 2.62199 5.16394 2.36166 5.57471C2.10133 5.98548 1.94046 6.45134 1.89185 6.93523C1.84325 7.41911 1.90825 7.90766 2.08168 8.362C2.25511 8.81634 2.53219 9.22394 2.89086 9.55235C2.04186 9.92067 1.30392 10.5046 0.750237 11.2461C0.650677 11.3787 0.607874 11.5454 0.631242 11.7096C0.654611 11.8738 0.742238 12.0219 0.874846 12.1215C1.00745 12.2211 1.17418 12.2639 1.33835 12.2405C1.50252 12.2171 1.65068 12.1295 1.75024 11.9969C2.12695 11.4905 2.61728 11.0797 3.18177 10.7974C3.74625 10.5152 4.36912 10.3694 5.00024 10.3719C5.166 10.3719 5.32497 10.306 5.44218 10.1888C5.55939 10.0716 5.62524 9.91264 5.62524 9.74688Z" fill="#666D80"/>
</svg>
