<svg width="154" height="28" viewBox="0 0 154 28" fill="none" xmlns="http://www.w3.org/2000/svg">
<path d="M46.9173 5.40852C48.1264 6.38875 48.8585 7.64085 49.1356 9.12042C49.3103 10.0534 49.4265 11.0217 49.3852 11.9662C49.262 14.7851 48.0962 17.0102 45.4484 18.2663C45.083 18.4397 45.1414 18.5911 45.3185 18.8295C46.7688 20.782 48.2197 22.7341 49.6688 24.6876C49.8488 24.9302 50.0194 25.1798 50.2405 25.4911C50.0336 25.5086 49.9159 25.5271 49.7982 25.5272C48.2556 25.528 46.7131 25.5219 45.1706 25.5296C44.9384 25.5308 44.7939 25.4709 44.6536 25.2682C43.346 23.38 42.0284 21.4986 40.6975 19.6268C40.5945 19.4819 40.3703 19.3426 40.1998 19.3393C38.984 19.3156 37.7671 19.3445 36.5514 19.3199C36.1242 19.3113 36.025 19.4876 36.0285 19.8671C36.0443 21.5792 36.0412 23.2914 36.0502 25.0035C36.053 25.5316 36.0607 25.5328 35.5174 25.5316C34.4136 25.5291 33.3098 25.5256 32.206 25.5215C31.6415 25.5194 31.6408 25.5183 31.6408 24.962C31.6406 18.1124 31.6407 11.2629 31.6406 4.41332C31.6406 3.56605 31.6404 3.56606 32.4792 3.56606C35.451 3.56606 38.4233 3.53417 41.3945 3.57719C43.4009 3.60624 45.2741 4.1381 46.9173 5.40852ZM41.8898 7.57714C40.0419 7.512 38.1942 7.44108 36.3457 7.39825C36.25 7.39603 36.0633 7.63316 36.0625 7.75978C36.0466 10.2204 36.0549 12.6811 36.0493 15.1418C36.0487 15.4198 36.1561 15.5162 36.4254 15.5132C37.1324 15.5054 37.8404 15.5375 38.5464 15.5112C39.5612 15.4733 40.5895 15.4854 41.5852 15.3175C43.0163 15.0763 44.1737 14.3436 44.6056 12.867C44.7872 12.2464 44.8211 11.5537 44.7808 10.9025C44.6712 9.13579 43.6647 7.99927 41.8898 7.57714Z" fill="white"/>
<path d="M73.6024 8.62039C74.9567 8.15128 76.3383 8.11469 77.692 8.25167C79.0297 8.38704 80.3222 8.80935 81.4923 9.69325C81.4923 7.15516 81.4923 4.68093 81.4923 2.17306C81.6903 2.14902 81.8395 2.11559 81.9889 2.1152C83.1066 2.11232 84.2245 2.12754 85.3419 2.11053C85.6783 2.10541 85.7735 2.21108 85.7732 2.54475C85.7649 10.0584 85.767 17.572 85.7663 25.0857C85.7662 25.212 85.7554 25.3383 85.7477 25.5054C85.6161 25.5146 85.4952 25.5303 85.3744 25.5303C84.299 25.5301 83.2236 25.5271 82.1483 25.5249C81.5556 25.5237 81.5569 25.5237 81.5324 24.9191C81.5274 24.794 81.5089 24.6695 81.4958 24.5373C81.4372 24.5373 81.3845 24.5204 81.357 24.5397C80.4326 25.186 79.4284 25.6568 78.3019 25.7797C77.5399 25.8628 76.7673 25.8807 75.9999 25.8744C74.4298 25.8615 72.963 25.4364 71.6838 24.5253C70.0121 23.3346 69.0403 21.6822 68.5709 19.682C68.2616 18.3637 68.2323 17.0314 68.3608 15.726C68.6454 12.8352 69.8275 10.4308 72.5635 9.04855C72.8875 8.88489 73.2328 8.76359 73.6024 8.62039ZM79.0361 21.9349C79.7485 21.6052 80.4718 21.2965 81.1689 20.9369C81.5326 20.7492 81.6654 20.3916 81.6634 19.971C81.6544 18.0474 81.6556 16.1237 81.663 14.2001C81.6647 13.7513 81.4946 13.4198 81.13 13.1578C79.8022 12.2034 78.3136 11.8623 76.7132 12.0497C74.5436 12.3038 73.2356 13.4415 72.8042 15.5109C72.6482 16.2594 72.6297 17.0601 72.69 17.8258C72.8559 19.9325 74.1001 21.4501 75.9792 21.9355C76.9702 22.1915 77.9697 22.1388 79.0361 21.9349Z" fill="white"/>
<path d="M59.5037 22.3111C61.4068 22.2211 63.0341 21.6004 64.3051 20.1274C64.7777 20.528 65.2172 20.896 65.6515 21.27C66.0252 21.5918 66.3885 21.9259 66.7655 22.2438C66.9502 22.3996 66.9313 22.5286 66.7915 22.7063C65.6354 24.1752 64.1388 25.1411 62.3374 25.5756C61.4974 25.7783 60.6095 25.7801 59.7441 25.88C58.5404 26.0188 57.3459 25.8824 56.1939 25.5832C53.978 25.0078 52.265 23.7048 51.2152 21.6527C50.2691 19.8031 50.0082 17.8198 50.265 15.753C50.4577 14.2024 50.942 12.7831 51.8695 11.5173C52.9533 10.0382 54.4129 9.12458 56.1535 8.6224C57.6676 8.18555 59.2134 8.11965 60.7527 8.37849C63.9129 8.90991 66.1223 10.598 67.0943 13.7473C67.55 15.2237 67.6302 16.7271 67.5604 18.3138C63.2252 18.3138 58.9048 18.3138 54.5359 18.3138C54.6026 19.0794 54.8663 19.7023 55.241 20.28C55.9956 21.4434 57.0958 22.0408 58.4538 22.2001C58.7901 22.2395 59.127 22.2743 59.5037 22.3111ZM59.8074 11.8478C58.6276 11.6934 57.4875 11.799 56.4445 12.4203C55.3869 13.0503 54.822 14.0157 54.5668 15.2193C57.518 15.2193 60.4167 15.2193 63.3646 15.2193C63.3338 15.0621 63.3151 14.9263 63.2801 14.7948C62.8144 13.0445 61.6163 12.1391 59.8074 11.8478Z" fill="white"/>
<path d="M88.8869 21.7096C88.8869 15.6813 88.8869 9.69541 88.8869 3.62143C89.1887 3.62143 89.4803 3.59829 89.7644 3.63418C89.8619 3.64649 89.9815 3.79291 90.018 3.90239C90.0651 4.04398 90.0439 4.20994 90.044 4.36541C90.0477 8.69628 90.0504 13.0271 90.0531 17.358C90.0533 17.6699 90.0532 17.9818 90.0532 18.3037C90.5289 17.8607 90.9829 17.4833 91.3841 17.0561C92.9597 15.3788 94.5211 13.6881 96.0831 11.9981C97.5587 10.4017 99.0275 8.79902 100.501 7.2008C101.448 6.17349 102.397 5.14718 103.349 4.12436C103.877 3.55663 104.507 3.43394 105.277 3.75208C102.118 7.16716 98.9676 10.5743 95.7574 14.0457C99.0723 17.8375 102.393 21.636 105.72 25.4418C104.761 25.7802 103.982 25.4768 103.304 24.6303C102.46 23.5743 101.569 22.5543 100.685 21.5306C99.6062 20.2818 98.5136 19.0451 97.4267 17.8035C96.637 16.9015 95.8472 15.9997 95.0551 15.0998C95.0197 15.0595 94.9621 15.0386 94.8808 14.9871C94.2763 15.6371 93.6737 16.2864 93.0695 16.9343C92.1361 17.9353 91.1953 18.9295 90.2748 19.9422C90.1454 20.0845 90.0486 20.3147 90.0467 20.5052C90.032 21.9766 90.0462 23.4481 90.0464 24.9196C90.0464 25.1126 90.0177 25.3055 90.0029 25.491C89.9231 25.5098 89.8823 25.5285 89.8421 25.5275C88.7064 25.4995 88.9001 25.6755 88.889 24.5968C88.8792 23.6487 88.8869 22.7003 88.8869 21.7096Z" fill="white"/>
<path d="M140.809 11.4962C141.563 12.4257 142.106 13.4318 142.41 14.562C142.755 15.8422 142.839 17.1347 142.658 18.4524C142.471 19.8127 142.032 21.0688 141.237 22.1924C140.069 23.8419 138.508 24.9495 136.554 25.4464C134.463 25.978 132.364 25.9581 130.314 25.2343C127.936 24.3943 126.212 22.7929 125.367 20.4237C124.359 17.5944 124.526 14.7996 126.195 12.2177C127.341 10.446 129.015 9.38669 131.041 8.8542C132.041 8.59143 133.054 8.43938 134.087 8.49021C136.704 8.61895 139.014 9.44744 140.809 11.4962ZM126.012 17.8997C126.337 20.916 127.862 23.0478 130.717 24.1334C132.224 24.7066 133.798 24.7935 135.396 24.5144C139.106 23.8666 141.554 21.0297 141.566 17.2734C141.574 14.849 140.846 12.7091 138.806 11.2293C136.799 9.77266 134.543 9.23301 132.095 9.75794C129.715 10.2681 127.775 11.4162 126.711 13.7269C126.113 15.0269 125.897 16.3965 126.012 17.8997Z" fill="white"/>
<path d="M108.919 16.2732C108.919 19.3692 108.919 22.4228 108.919 25.439C108.832 25.4906 108.809 25.515 108.785 25.5162C107.767 25.5673 107.786 25.5671 107.79 24.5026C107.8 21.6293 107.792 18.7559 107.792 15.8826C107.792 13.7455 107.793 11.6083 107.794 9.47113C107.794 8.77816 107.812 8.76126 108.505 8.74667C108.616 8.74435 108.726 8.74635 108.915 8.74635C108.915 9.09076 108.915 9.41083 108.915 9.7309C108.915 10.051 108.915 10.371 108.915 10.7679C109.51 10.453 110.013 10.1546 110.541 9.91325C111.961 9.26505 113.426 8.77866 114.991 8.581C116.59 8.37903 118.132 8.51648 119.617 9.12845C121.157 9.76282 121.919 11.0381 122.332 12.5729C122.613 13.6181 122.632 14.6885 122.631 15.7617C122.628 18.8756 122.632 21.9895 122.631 25.1034C122.631 25.2286 122.611 25.3537 122.598 25.5048C122.259 25.5048 121.941 25.5048 121.568 25.5048C121.568 24.7965 121.567 24.0924 121.568 23.3884C121.569 20.7982 121.605 18.2074 121.559 15.6181C121.535 14.2298 121.411 12.8349 120.644 11.6014C120.044 10.6371 119.15 10.0809 118.07 9.8519C114.868 9.17365 111.984 10.0526 109.271 11.7124C108.996 11.8805 108.89 12.1057 108.898 12.4522C108.929 13.7111 108.916 14.9711 108.919 16.2732Z" fill="white"/>
<path d="M152.001 8.73876C152.564 8.73876 153.084 8.73876 153.641 8.73876C153.659 8.9506 153.666 9.13077 153.689 9.30877C153.738 9.67363 153.6 9.81335 153.219 9.80414C152.299 9.78192 151.379 9.7987 150.459 9.79644C149.554 9.79422 148.648 9.79379 147.743 9.78011C147.437 9.77549 147.319 9.88526 147.32 10.203C147.33 13.8401 147.308 17.4774 147.346 21.1141C147.355 22.0074 147.471 22.9452 148.112 23.6453C148.425 23.9879 148.874 24.2948 149.317 24.4144C150.826 24.8218 152.334 24.5551 153.909 24.2128C153.923 24.5077 153.982 24.7894 153.931 25.0493C153.9 25.2043 153.718 25.4113 153.568 25.4481C152.017 25.8285 150.447 25.9383 148.876 25.5979C147.555 25.3116 146.793 24.4054 146.489 23.1448C146.31 22.4007 146.225 21.6174 146.219 20.8509C146.195 17.3132 146.212 13.7751 146.223 10.2371C146.224 9.94337 146.114 9.81793 145.832 9.81601C145.168 9.81147 144.503 9.80599 143.839 9.7995C142.96 9.79092 142.872 9.67703 143.056 8.75699C143.71 8.75699 144.37 8.76746 145.031 8.75468C146.198 8.73208 146.199 8.72615 146.201 7.56304C146.204 6.04872 146.205 4.53439 146.207 3.02006C146.208 2.05869 146.363 1.94359 147.327 2.20494C147.327 4.12375 147.322 6.04738 147.329 7.97097C147.332 8.78091 147.173 8.7469 148.095 8.74603C149.383 8.74481 150.671 8.74129 152.001 8.73876Z" fill="white"/>
<path d="M6.93319 1.92673C9.49859 0.414758 12.2624 -0.220666 15.1699 0.0676863C20.3245 0.578893 24.1118 3.20739 26.5315 7.78778C27.7455 10.086 28.1673 12.561 27.9653 15.1257C27.4904 21.153 23.0535 26.3664 17.0004 27.6526C12.4391 28.6218 8.32974 27.5594 4.80188 24.5125C2.1628 22.2332 0.567282 19.3366 0.125193 15.845C-0.278747 12.6546 0.286579 9.6507 1.94093 6.88747C3.17374 4.82832 4.82674 3.1645 6.93319 1.92673ZM8.38228 26.3389C10.9009 27.48 13.5333 27.8411 16.2517 27.3712C23.5442 26.1107 28.4471 19.3573 27.4108 12.0458C26.3815 4.78458 19.6373 -0.364795 12.3445 0.542518C6.01633 1.32983 1.06758 6.43256 0.489687 12.7662C-0.0296434 18.458 3.12592 23.9116 8.38228 26.3389Z" fill="white"/>
<path d="M9.22963 19.2564C8.80351 20.1321 8.12948 20.4098 7.21095 20.2826C6.72724 20.2157 6.22665 20.2708 5.60938 20.2708C7.23582 18.1408 8.8063 16.0841 10.3979 13.9998C8.91746 12.305 7.4498 10.6247 5.90237 8.85304C6.36868 8.85304 6.74835 8.90713 7.10701 8.84325C8.35392 8.62117 9.18818 9.11801 9.91472 10.1287C10.7295 11.2621 11.7077 12.278 12.6745 13.4153C12.6745 11.8629 12.6745 10.3915 12.6745 8.8936C12.8229 8.87523 12.9299 8.85042 13.0369 8.85049C14.5514 8.85149 16.0662 8.84185 17.5804 8.86747C18.0709 8.87577 18.5714 8.93095 19.0474 9.04674C20.8566 9.48688 21.847 10.6828 21.9475 12.5412C22.043 14.3059 21.5115 15.7516 19.7969 16.5554C19.7755 16.5655 19.7648 16.5984 19.7281 16.6504C20.5877 17.8241 21.4537 19.0064 22.3797 20.2708C21.9092 20.2708 21.5014 20.2141 21.1152 20.2815C19.9751 20.4803 19.2207 20.0597 18.701 19.03C18.4046 18.4427 17.9466 17.9383 17.5787 17.385C17.4131 17.1361 17.2192 17.0219 16.913 17.0315C16.2943 17.051 15.6745 17.0373 15.0101 17.0373C15.0101 18.1202 15.0101 19.1608 15.0101 20.2373C14.2265 20.2373 13.4878 20.2373 12.7063 20.2373C12.7063 18.4137 12.7063 16.5978 12.7063 14.7819C12.675 14.7689 12.6437 14.7559 12.6123 14.7428C11.4905 16.2391 10.3687 17.7353 9.22963 19.2564ZM19.4268 13.7618C19.8436 12.4029 19.3244 11.1735 18.1141 10.9654C17.111 10.793 16.0704 10.8388 15.0248 10.7869C15.0248 12.265 15.0248 13.6418 15.0248 14.9973C15.9536 14.9973 16.8579 15.052 17.7521 14.9802C18.4859 14.9213 19.0931 14.5503 19.4268 13.7618Z" fill="white"/>
</svg>
