<svg width="220" height="40" viewBox="0 0 220 40" fill="none" xmlns="http://www.w3.org/2000/svg">
<path d="M67.0901 7.72597C68.8174 9.1263 69.8632 10.915 70.2591 13.0287C70.5087 14.3615 70.6747 15.7449 70.6158 17.0941C70.4398 21.1211 68.7742 24.2997 64.9916 26.0943C64.4696 26.3419 64.553 26.5582 64.806 26.8988C66.878 29.6881 68.9507 32.4768 71.0209 35.2674C71.2781 35.6141 71.5218 35.9706 71.8377 36.4154C71.5421 36.4404 71.3739 36.4668 71.2057 36.4669C69.002 36.4681 66.7984 36.4594 64.5948 36.4704C64.2629 36.4721 64.0566 36.3865 63.8561 36.097C61.9881 33.3995 60.1057 30.7118 58.2043 28.0378C58.0572 27.8308 57.737 27.6319 57.4933 27.6271C55.7564 27.5933 54.018 27.6345 52.2812 27.5994C51.6709 27.5871 51.5293 27.8389 51.5343 28.381C51.5568 30.8269 51.5524 33.2729 51.5652 35.7189C51.5692 36.4732 51.5801 36.4749 50.804 36.4732C49.2271 36.4696 47.6502 36.4647 46.0733 36.4588C45.2669 36.4557 45.2659 36.4543 45.2658 35.6595C45.2656 25.8744 45.2657 16.0893 45.2656 6.30426C45.2656 5.09387 45.2653 5.09388 46.4636 5.09388C50.7092 5.09389 54.9555 5.04832 59.2002 5.10978C62.0666 5.15128 64.7426 5.91108 67.0901 7.72597ZM59.9078 10.824C57.2679 10.7309 54.6281 10.6296 51.9874 10.5684C51.8506 10.5653 51.5839 10.904 51.5827 11.0849C51.56 14.6001 51.5719 18.1154 51.5639 21.6307C51.563 22.0278 51.7165 22.1655 52.1013 22.1613C53.1112 22.15 54.1227 22.1959 55.1313 22.1583C56.5811 22.1043 58.05 22.1215 59.4726 21.8817C61.5171 21.5371 63.1705 20.4904 63.7876 18.381C64.047 17.4943 64.0955 16.5048 64.0378 15.5745C63.8813 13.0506 62.4433 11.427 59.9078 10.824Z" fill="white"/>
<path d="M105.208 12.3147C107.143 11.6445 109.116 11.5923 111.05 11.788C112.961 11.9813 114.808 12.5846 116.479 13.8474C116.479 10.2215 116.479 6.68691 116.479 3.10423C116.762 3.06988 116.976 3.02213 117.189 3.02158C118.786 3.01746 120.383 3.0392 121.979 3.0149C122.46 3.00759 122.596 3.15855 122.595 3.63522C122.583 14.369 122.586 25.1028 122.585 35.8365C122.585 36.017 122.57 36.1974 122.559 36.4361C122.371 36.4493 122.198 36.4717 122.025 36.4717C120.489 36.4714 118.953 36.4671 117.417 36.464C116.57 36.4623 116.572 36.4622 116.537 35.5985C116.53 35.4199 116.503 35.2421 116.485 35.0531C116.401 35.0531 116.326 35.0291 116.286 35.0566C114.966 35.9798 113.531 36.6524 111.922 36.828C110.833 36.9468 109.729 36.9723 108.633 36.9633C106.39 36.9449 104.294 36.3376 102.467 35.0361C100.079 33.3351 98.6904 30.9744 98.0199 28.117C97.578 26.2338 97.5361 24.3305 97.7197 22.4656C98.1263 18.3359 99.815 14.901 103.724 12.9264C104.187 12.6926 104.68 12.5193 105.208 12.3147ZM112.971 31.3355C113.988 30.8644 115.022 30.4235 116.017 29.9097C116.537 29.6416 116.727 29.1307 116.724 28.5299C116.711 25.7819 116.713 23.0337 116.723 20.2857C116.726 19.6446 116.483 19.1711 115.962 18.7967C114.065 17.4333 111.938 16.946 109.652 17.2137C106.553 17.5768 104.684 19.202 104.068 22.1583C103.845 23.2276 103.818 24.3714 103.904 25.4652C104.141 28.4749 105.919 30.6429 108.603 31.3363C110.019 31.7019 111.447 31.6267 112.971 31.3355Z" fill="white"/>
<path d="M85.0659 31.8732C87.7847 31.7446 90.1096 30.8579 91.9252 28.7536C92.6004 29.3259 93.2283 29.8516 93.8487 30.3859C94.3827 30.8457 94.9016 31.323 95.4402 31.7771C95.7041 31.9996 95.6771 32.184 95.4774 32.4377C93.8258 34.5362 91.6877 35.916 89.1141 36.5368C87.9142 36.8263 86.6457 36.829 85.4094 36.9716C83.6897 37.1699 81.9832 36.975 80.3375 36.5476C77.1719 35.7256 74.7246 33.8642 73.2249 30.9326C71.8732 28.2904 71.5005 25.4571 71.8675 22.5045C72.1427 20.2894 72.8346 18.2618 74.1597 16.4535C75.708 14.3405 77.7932 13.0353 80.2797 12.3179C82.4429 11.6939 84.6512 11.5997 86.8503 11.9695C91.365 12.7286 94.5213 15.1402 95.91 19.6392C96.561 21.7483 96.6756 23.8961 96.5758 26.1628C90.3825 26.1628 84.2103 26.1628 77.9688 26.1628C78.0642 27.2565 78.4409 28.1463 78.9762 28.9717C80.0542 30.6337 81.626 31.487 83.566 31.7146C84.0465 31.7709 84.5278 31.8206 85.0659 31.8732ZM85.4998 16.9257C83.8143 16.7051 82.1856 16.8559 80.6955 17.7435C79.1846 18.6434 78.3777 20.0226 78.0131 21.7421C82.2292 21.7421 86.3703 21.7421 90.5817 21.7421C90.5376 21.5175 90.5109 21.3235 90.461 21.1356C89.7956 18.6353 88.084 17.3418 85.4998 16.9257Z" fill="white"/>
<path d="M127.045 31.0131C127.045 22.4012 127.045 13.85 127.045 5.17285C127.476 5.17285 127.893 5.13978 128.299 5.19105C128.438 5.20865 128.609 5.41781 128.661 5.57421C128.728 5.77648 128.698 6.01357 128.698 6.23567C128.703 12.4226 128.707 18.6096 128.711 24.7965C128.711 25.2421 128.711 25.6876 128.711 26.1476C129.391 25.5147 130.039 24.9754 130.612 24.3653C132.863 21.9691 135.094 19.5538 137.326 17.1395C139.434 14.8589 141.532 12.5694 143.637 10.2862C144.99 8.81864 146.345 7.35248 147.705 5.89131C148.46 5.08027 149.36 4.905 150.459 5.35949C145.948 10.2382 141.446 15.1055 136.86 20.0646C141.596 25.4815 146.34 30.9079 151.093 36.3448C149.723 36.8282 148.609 36.3948 147.642 35.1856C146.435 33.6769 145.163 32.2199 143.9 30.7573C142.359 28.9734 140.798 27.2066 139.245 25.4329C138.117 24.1444 136.988 22.8561 135.857 21.5705C135.806 21.5129 135.724 21.4831 135.608 21.4096C134.744 22.338 133.883 23.2656 133.02 24.1912C131.687 25.6212 130.343 27.0415 129.028 28.4883C128.843 28.6916 128.704 29.0203 128.702 29.2926C128.681 31.3945 128.701 33.4967 128.701 35.5988C128.701 35.8745 128.66 36.1501 128.639 36.4151C128.525 36.442 128.467 36.4687 128.409 36.4673C126.787 36.4272 127.064 36.6786 127.048 35.1377C127.034 33.7832 127.045 32.4284 127.045 31.0131Z" fill="white"/>
<path d="M201.227 16.4224C202.303 17.7503 203.079 19.1875 203.514 20.8021C204.006 22.631 204.126 24.4775 203.868 26.3598C203.601 28.3031 202.975 30.0976 201.838 31.7027C200.17 34.0592 197.94 35.6415 195.148 36.3513C192.16 37.1108 189.162 37.0823 186.234 36.0483C182.836 34.8483 180.373 32.5606 179.167 29.1761C177.726 25.1341 177.964 21.1417 180.349 17.4531C181.986 14.9222 184.378 13.4089 187.272 12.6482C188.7 12.2728 190.148 12.0556 191.624 12.1282C195.362 12.3121 198.663 13.4957 201.227 16.4224ZM180.088 25.5703C180.552 29.8793 182.73 32.9247 186.809 34.4755C188.963 35.2945 191.211 35.4186 193.494 35.0198C198.793 34.0945 202.292 30.0417 202.308 24.6756C202.319 21.2122 201.279 18.1551 198.366 16.0412C195.498 13.9602 192.275 13.1893 188.777 13.9392C185.378 14.6681 182.606 16.3081 181.086 19.6092C180.232 21.4663 179.923 23.4229 180.088 25.5703Z" fill="white"/>
<path d="M155.669 23.2467C155.669 27.6697 155.669 32.0319 155.669 36.3408C155.544 36.4145 155.512 36.4493 155.478 36.451C154.023 36.5239 154.05 36.5237 154.056 35.003C154.07 30.8983 154.059 26.7935 154.059 22.6888C154.06 19.6357 154.06 16.5826 154.062 13.5295C154.062 12.5395 154.088 12.5154 155.078 12.4946C155.236 12.4912 155.394 12.4941 155.663 12.4941C155.663 12.9861 155.663 13.4433 155.663 13.9006C155.663 14.3578 155.663 14.8151 155.663 15.382C156.513 14.9321 157.231 14.5059 157.987 14.1611C160.015 13.2351 162.107 12.5403 164.343 12.2579C166.627 11.9693 168.83 12.1657 170.952 13.0399C173.152 13.9462 174.241 15.768 174.831 17.9606C175.233 19.4537 175.26 20.9829 175.258 22.5161C175.253 26.9645 175.259 31.4129 175.258 35.8613C175.258 36.0401 175.23 36.2189 175.212 36.4347C174.727 36.4347 174.272 36.4347 173.739 36.4347C173.739 35.4229 173.738 34.4171 173.739 33.4113C173.741 29.711 173.793 26.0099 173.727 22.3109C173.692 20.3276 173.515 18.3348 172.419 16.5727C171.562 15.1952 170.286 14.4005 168.742 14.0734C164.168 13.1045 160.048 14.3602 156.172 16.7312C155.779 16.9714 155.627 17.2932 155.64 17.7882C155.684 19.5866 155.665 21.3866 155.669 23.2467Z" fill="white"/>
<path d="M217.213 12.4834C218.017 12.4834 218.761 12.4834 219.556 12.4834C219.581 12.786 219.591 13.0434 219.625 13.2977C219.694 13.8189 219.497 14.0185 218.953 14.0054C217.639 13.9736 216.324 13.9976 215.01 13.9944C213.717 13.9912 212.423 13.9906 211.129 13.971C210.693 13.9644 210.525 14.1212 210.526 14.5752C210.54 19.771 210.508 24.9671 210.562 30.1624C210.575 31.4386 210.741 32.7782 211.656 33.7785C212.104 34.2679 212.746 34.7064 213.378 34.8771C215.534 35.4592 217.689 35.0782 219.939 34.5891C219.958 35.0105 220.043 35.4128 219.969 35.7842C219.926 36.0055 219.666 36.3013 219.451 36.3539C217.236 36.8973 214.993 37.0541 212.749 36.5678C210.861 36.1588 209.772 34.8643 209.339 33.0635C209.083 32.0004 208.96 30.8815 208.953 29.7865C208.919 24.7325 208.942 19.6781 208.958 14.6239C208.959 14.2042 208.802 14.0251 208.4 14.0223C207.451 14.0158 206.502 14.008 205.552 13.9987C204.297 13.9865 204.171 13.8238 204.434 12.5094C205.368 12.5094 206.312 12.5244 207.255 12.5061C208.923 12.4738 208.924 12.4654 208.927 10.8038C208.932 8.64046 208.933 6.47714 208.935 4.31381C208.937 2.94042 209.159 2.776 210.536 3.14936C210.536 5.89051 210.529 8.63856 210.539 11.3865C210.543 12.5436 210.315 12.495 211.633 12.4938C213.472 12.492 215.312 12.487 217.213 12.4834Z" fill="white"/>
<path d="M9.95953 2.75247C13.6245 0.592512 17.5729 -0.315237 21.7266 0.0966948C29.0905 0.82699 34.5011 4.58198 37.9579 11.1254C39.6923 14.4086 40.2949 17.9443 40.0062 21.6081C39.3278 30.2186 32.9892 37.6662 24.3416 39.5037C17.8254 40.8882 11.9547 39.3706 6.91472 35.0179C3.14449 31.7617 0.865114 27.6237 0.233539 22.6357C-0.343534 18.078 0.464097 13.7867 2.82752 9.83924C4.58874 6.8976 6.95024 4.52072 9.95953 2.75247ZM12.0297 37.6271C15.6279 39.2571 19.3885 39.7729 23.2721 39.1017C33.6902 37.301 40.6946 27.6533 39.2141 17.2084C37.7437 6.83512 28.1087 -0.521136 17.6902 0.775025C8.64969 1.89976 1.57985 9.18937 0.75426 18.2375C0.0123386 26.3686 4.52041 34.1595 12.0297 37.6271Z" fill="white"/>
<path d="M13.2501 27.5096C12.6413 28.7606 11.6784 29.1573 10.3662 28.9757C9.67513 28.8801 8.95997 28.9588 8.07812 28.9588C10.4017 25.916 12.6453 22.9778 14.919 20.0003C12.8041 17.579 10.7074 15.1786 8.49671 12.6477C9.16288 12.6477 9.70528 12.725 10.2177 12.6337C11.999 12.3164 13.1908 13.0262 14.2288 14.47C15.3928 16.0892 16.7903 17.5405 18.1715 19.1652C18.1715 16.9475 18.1715 14.8454 18.1715 12.7056C18.3834 12.6794 18.5363 12.6439 18.6891 12.644C20.8529 12.6455 23.0169 12.6317 25.1801 12.6683C25.8808 12.6802 26.5959 12.759 27.2759 12.9244C29.8605 13.5532 31.2754 15.2616 31.419 17.9165C31.5555 20.4375 30.7961 22.5028 28.3466 23.6511C28.316 23.6654 28.3007 23.7125 28.2483 23.7867C29.4763 25.4634 30.7135 27.1525 32.0365 28.9588C31.3643 28.9588 30.7817 28.8778 30.2299 28.974C28.6012 29.2581 27.5234 28.6572 26.781 27.1862C26.3575 26.3472 25.7032 25.6266 25.1776 24.8362C24.9411 24.4806 24.664 24.3175 24.2266 24.3313C23.3427 24.359 22.4573 24.3396 21.5081 24.3396C21.5081 25.8866 21.5081 27.373 21.5081 28.9109C20.3886 28.9109 19.3334 28.9109 18.2169 28.9109C18.2169 26.3058 18.2169 23.7116 18.2169 21.1175C18.1722 21.0989 18.1274 21.0803 18.0827 21.0617C16.48 23.1991 14.8774 25.3366 13.2501 27.5096ZM27.8179 19.6602C28.4133 17.7189 27.6716 15.9626 25.9426 15.6654C24.5096 15.419 23.0229 15.4845 21.5292 15.4103C21.5292 17.5219 21.5292 19.4888 21.5292 21.4252C22.856 21.4252 24.148 21.5033 25.4254 21.4008C26.4737 21.3166 27.3411 20.7866 27.8179 19.6602Z" fill="white"/>
</svg>
